<svg xmlns="http://www.w3.org/2000/svg" width="80" height="80" viewBox="0 0 80 80">
    <g fill="none" fill-rule="evenodd">
        <circle cx="40.5" cy="40.5" r="39.5" fill="#00008F"/>
        <g fill-rule="nonzero">
            <path fill="#F1D9C5" d="M40 62c-8.271 0-15-6.729-15-15v-8a1 1 0 0 1 1-1h28a1 1 0 0 1 1 1v8c0 8.271-6.729 15-15 15z"/>
            <path fill="#E6E6E6" d="M55 38H25V22.999a1 1 0 0 1 .725-.961l14-4c.18-.051.37-.051.55 0l13.999 4A1 1 0 0 1 55 23v15z"/>
            <path fill="#E86C60" d="M44 28h-3v-3a1 1 0 1 0-2 0v3h-3a1 1 0 1 0 0 2h3v3a1 1 0 1 0 2 0v-3h3a1 1 0 1 0 0-2z"/>
            <path fill="#EAC3A2" d="M25 38h30v2H25z"/>
        </g>
    </g>
</svg>
